<svg width="364" height="77" viewBox="0 0 364 77" fill="none" xmlns="http://www.w3.org/2000/svg">
<path d="M74.86 18.02C74.86 16.66 75.1667 15.44 75.78 14.36C76.3933 13.2667 77.2267 12.4133 78.28 11.8C79.3467 11.1867 80.5267 10.88 81.82 10.88C83.34 10.88 84.6667 11.2467 85.8 11.98C86.9333 12.7133 87.76 13.7533 88.28 15.1H86.1C85.7133 14.26 85.1533 13.6133 84.42 13.16C83.7 12.7067 82.8333 12.48 81.82 12.48C80.8467 12.48 79.9733 12.7067 79.2 13.16C78.4267 13.6133 77.82 14.26 77.38 15.1C76.94 15.9267 76.72 16.9 76.72 18.02C76.72 19.1267 76.94 20.1 77.38 20.94C77.82 21.7667 78.4267 22.4067 79.2 22.86C79.9733 23.3133 80.8467 23.54 81.82 23.54C82.8333 23.54 83.7 23.32 84.42 22.88C85.1533 22.4267 85.7133 21.78 86.1 20.94H88.28C87.76 22.2733 86.9333 23.3067 85.8 24.04C84.6667 24.76 83.34 25.12 81.82 25.12C80.5267 25.12 79.3467 24.82 78.28 24.22C77.2267 23.6067 76.3933 22.76 75.78 21.68C75.1667 20.6 74.86 19.38 74.86 18.02ZM100.989 19.1C100.989 19.4467 100.969 19.8133 100.929 20.2H92.1692C92.2359 21.28 92.6026 22.1267 93.2692 22.74C93.9492 23.34 94.7692 23.64 95.7292 23.64C96.5159 23.64 97.1692 23.46 97.6892 23.1C98.2226 22.7267 98.5959 22.2333 98.8092 21.62H100.769C100.476 22.6733 99.8892 23.5333 99.0092 24.2C98.1292 24.8533 97.0359 25.18 95.7292 25.18C94.6892 25.18 93.7559 24.9467 92.9292 24.48C92.1159 24.0133 91.4759 23.3533 91.0092 22.5C90.5426 21.6333 90.3092 20.6333 90.3092 19.5C90.3092 18.3667 90.5359 17.3733 90.9892 16.52C91.4426 15.6667 92.0759 15.0133 92.8892 14.56C93.7159 14.0933 94.6626 13.86 95.7292 13.86C96.7692 13.86 97.6892 14.0867 98.4892 14.54C99.2892 14.9933 99.9026 15.62 100.329 16.42C100.769 17.2067 100.989 18.1 100.989 19.1ZM99.1092 18.72C99.1092 18.0267 98.9559 17.4333 98.6492 16.94C98.3426 16.4333 97.9226 16.0533 97.3892 15.8C96.8692 15.5333 96.2892 15.4 95.6492 15.4C94.7292 15.4 93.9426 15.6933 93.2892 16.28C92.6492 16.8667 92.2826 17.68 92.1892 18.72H99.1092ZM105.212 10.2V25H103.392V10.2H105.212ZM118.313 19.1C118.313 19.4467 118.293 19.8133 118.253 20.2H109.493C109.56 21.28 109.927 22.1267 110.593 22.74C111.273 23.34 112.093 23.64 113.053 23.64C113.84 23.64 114.493 23.46 115.013 23.1C115.547 22.7267 115.92 22.2333 116.133 21.62H118.093C117.8 22.6733 117.213 23.5333 116.333 24.2C115.453 24.8533 114.36 25.18 113.053 25.18C112.013 25.18 111.08 24.9467 110.253 24.48C109.44 24.0133 108.8 23.3533 108.333 22.5C107.867 21.6333 107.633 20.6333 107.633 19.5C107.633 18.3667 107.86 17.3733 108.313 16.52C108.767 15.6667 109.4 15.0133 110.213 14.56C111.04 14.0933 111.987 13.86 113.053 13.86C114.093 13.86 115.013 14.0867 115.813 14.54C116.613 14.9933 117.227 15.62 117.653 16.42C118.093 17.2067 118.313 18.1 118.313 19.1ZM116.433 18.72C116.433 18.0267 116.28 17.4333 115.973 16.94C115.667 16.4333 115.247 16.0533 114.713 15.8C114.193 15.5333 113.613 15.4 112.973 15.4C112.053 15.4 111.267 15.6933 110.613 16.28C109.973 16.8667 109.607 17.68 109.513 18.72H116.433ZM122.536 16.08C122.909 15.4267 123.456 14.8933 124.176 14.48C124.896 14.0667 125.716 13.86 126.636 13.86C127.622 13.86 128.509 14.0933 129.296 14.56C130.082 15.0267 130.702 15.6867 131.156 16.54C131.609 17.38 131.836 18.36 131.836 19.48C131.836 20.5867 131.609 21.5733 131.156 22.44C130.702 23.3067 130.076 23.98 129.276 24.46C128.489 24.94 127.609 25.18 126.636 25.18C125.689 25.18 124.856 24.9733 124.136 24.56C123.429 24.1467 122.896 23.62 122.536 22.98V25H120.716V10.2H122.536V16.08ZM129.976 19.48C129.976 18.6533 129.809 17.9333 129.476 17.32C129.142 16.7067 128.689 16.24 128.116 15.92C127.556 15.6 126.936 15.44 126.256 15.44C125.589 15.44 124.969 15.6067 124.396 15.94C123.836 16.26 123.382 16.7333 123.036 17.36C122.702 17.9733 122.536 18.6867 122.536 19.5C122.536 20.3267 122.702 21.0533 123.036 21.68C123.382 22.2933 123.836 22.7667 124.396 23.1C124.969 23.42 125.589 23.58 126.256 23.58C126.936 23.58 127.556 23.42 128.116 23.1C128.689 22.7667 129.142 22.2933 129.476 21.68C129.809 21.0533 129.976 20.32 129.976 19.48ZM136.051 15.82C136.371 15.1933 136.825 14.7067 137.411 14.36C138.011 14.0133 138.738 13.84 139.591 13.84V15.72H139.111C137.071 15.72 136.051 16.8267 136.051 19.04V25H134.231V14.04H136.051V15.82ZM141.012 19.48C141.012 18.36 141.239 17.38 141.692 16.54C142.146 15.6867 142.766 15.0267 143.552 14.56C144.352 14.0933 145.239 13.86 146.212 13.86C147.172 13.86 148.006 14.0667 148.712 14.48C149.419 14.8933 149.946 15.4133 150.292 16.04V14.04H152.132V25H150.292V22.96C149.932 23.6 149.392 24.1333 148.672 24.56C147.966 24.9733 147.139 25.18 146.192 25.18C145.219 25.18 144.339 24.94 143.552 24.46C142.766 23.98 142.146 23.3067 141.692 22.44C141.239 21.5733 141.012 20.5867 141.012 19.48ZM150.292 19.5C150.292 18.6733 150.126 17.9533 149.792 17.34C149.459 16.7267 149.006 16.26 148.432 15.94C147.872 15.6067 147.252 15.44 146.572 15.44C145.892 15.44 145.272 15.6 144.712 15.92C144.152 16.24 143.706 16.7067 143.372 17.32C143.039 17.9333 142.872 18.6533 142.872 19.48C142.872 20.32 143.039 21.0533 143.372 21.68C143.706 22.2933 144.152 22.7667 144.712 23.1C145.272 23.42 145.892 23.58 146.572 23.58C147.252 23.58 147.872 23.42 148.432 23.1C149.006 22.7667 149.459 22.2933 149.792 21.68C150.126 21.0533 150.292 20.3267 150.292 19.5ZM160.548 13.84C161.881 13.84 162.961 14.2467 163.788 15.06C164.615 15.86 165.028 17.02 165.028 18.54V25H163.228V18.8C163.228 17.7067 162.955 16.8733 162.408 16.3C161.861 15.7133 161.115 15.42 160.168 15.42C159.208 15.42 158.441 15.72 157.868 16.32C157.308 16.92 157.028 17.7933 157.028 18.94V25H155.208V14.04H157.028V15.6C157.388 15.04 157.875 14.6067 158.488 14.3C159.115 13.9933 159.801 13.84 160.548 13.84ZM170.221 15.54V22C170.221 22.5333 170.334 22.9133 170.561 23.14C170.788 23.3533 171.181 23.46 171.741 23.46H173.081V25H171.441C170.428 25 169.668 24.7667 169.161 24.3C168.654 23.8333 168.401 23.0667 168.401 22V15.54H166.981V14.04H168.401V11.28H170.221V14.04H173.081V15.54H170.221ZM79.96 50.14C79.04 50.14 78.2133 49.98 77.48 49.66C76.76 49.3267 76.1933 48.8733 75.78 48.3C75.3667 47.7133 75.1533 47.04 75.14 46.28H77.08C77.1467 46.9333 77.4133 47.4867 77.88 47.94C78.36 48.38 79.0533 48.6 79.96 48.6C80.8267 48.6 81.5067 48.3867 82 47.96C82.5067 47.52 82.76 46.96 82.76 46.28C82.76 45.7467 82.6133 45.3133 82.32 44.98C82.0267 44.6467 81.66 44.3933 81.22 44.22C80.78 44.0467 80.1867 43.86 79.44 43.66C78.52 43.42 77.78 43.18 77.22 42.94C76.6733 42.7 76.2 42.3267 75.8 41.82C75.4133 41.3 75.22 40.6067 75.22 39.74C75.22 38.98 75.4133 38.3067 75.8 37.72C76.1867 37.1333 76.7267 36.68 77.42 36.36C78.1267 36.04 78.9333 35.88 79.84 35.88C81.1467 35.88 82.2133 36.2067 83.04 36.86C83.88 37.5133 84.3533 38.38 84.46 39.46H82.46C82.3933 38.9267 82.1133 38.46 81.62 38.06C81.1267 37.6467 80.4733 37.44 79.66 37.44C78.9 37.44 78.28 37.64 77.8 38.04C77.32 38.4267 77.08 38.9733 77.08 39.68C77.08 40.1867 77.22 40.6 77.5 40.92C77.7933 41.24 78.1467 41.4867 78.56 41.66C78.9867 41.82 79.58 42.0067 80.34 42.22C81.26 42.4733 82 42.7267 82.56 42.98C83.12 43.22 83.6 43.6 84 44.12C84.4 44.6267 84.6 45.32 84.6 46.2C84.6 46.88 84.42 47.52 84.06 48.12C83.7 48.72 83.1667 49.2067 82.46 49.58C81.7533 49.9533 80.92 50.14 79.96 50.14ZM97.2783 44.1C97.2783 44.4467 97.2583 44.8133 97.2183 45.2H88.4583C88.5249 46.28 88.8916 47.1267 89.5583 47.74C90.2383 48.34 91.0583 48.64 92.0183 48.64C92.8049 48.64 93.4583 48.46 93.9783 48.1C94.5116 47.7267 94.8849 47.2333 95.0983 46.62H97.0583C96.7649 47.6733 96.1783 48.5333 95.2983 49.2C94.4183 49.8533 93.3249 50.18 92.0183 50.18C90.9783 50.18 90.0449 49.9467 89.2183 49.48C88.4049 49.0133 87.7649 48.3533 87.2983 47.5C86.8316 46.6333 86.5983 45.6333 86.5983 44.5C86.5983 43.3667 86.8249 42.3733 87.2783 41.52C87.7316 40.6667 88.3649 40.0133 89.1783 39.56C90.0049 39.0933 90.9516 38.86 92.0183 38.86C93.0583 38.86 93.9783 39.0867 94.7783 39.54C95.5783 39.9933 96.1916 40.62 96.6183 41.42C97.0583 42.2067 97.2783 43.1 97.2783 44.1ZM95.3983 43.72C95.3983 43.0267 95.2449 42.4333 94.9383 41.94C94.6316 41.4333 94.2116 41.0533 93.6783 40.8C93.1583 40.5333 92.5783 40.4 91.9383 40.4C91.0183 40.4 90.2316 40.6933 89.5783 41.28C88.9383 41.8667 88.5716 42.68 88.4783 43.72H95.3983ZM101.501 40.82C101.821 40.1933 102.274 39.7067 102.861 39.36C103.461 39.0133 104.187 38.84 105.041 38.84V40.72H104.561C102.521 40.72 101.501 41.8267 101.501 44.04V50H99.6806V39.04H101.501V40.82ZM111.222 48.32L114.622 39.04H116.562L112.262 50H110.142L105.842 39.04H107.802L111.222 48.32ZM119.293 37.26C118.946 37.26 118.653 37.14 118.413 36.9C118.173 36.66 118.053 36.3667 118.053 36.02C118.053 35.6733 118.173 35.38 118.413 35.14C118.653 34.9 118.946 34.78 119.293 34.78C119.626 34.78 119.906 34.9 120.133 35.14C120.373 35.38 120.493 35.6733 120.493 36.02C120.493 36.3667 120.373 36.66 120.133 36.9C119.906 37.14 119.626 37.26 119.293 37.26ZM120.173 39.04V50H118.353V39.04H120.173ZM122.594 44.5C122.594 43.3667 122.821 42.38 123.274 41.54C123.728 40.6867 124.354 40.0267 125.154 39.56C125.968 39.0933 126.894 38.86 127.934 38.86C129.281 38.86 130.388 39.1867 131.254 39.84C132.134 40.4933 132.714 41.4 132.994 42.56H131.034C130.848 41.8933 130.481 41.3667 129.934 40.98C129.401 40.5933 128.734 40.4 127.934 40.4C126.894 40.4 126.054 40.76 125.414 41.48C124.774 42.1867 124.454 43.1933 124.454 44.5C124.454 45.82 124.774 46.84 125.414 47.56C126.054 48.28 126.894 48.64 127.934 48.64C128.734 48.64 129.401 48.4533 129.934 48.08C130.468 47.7067 130.834 47.1733 131.034 46.48H132.994C132.701 47.6 132.114 48.5 131.234 49.18C130.354 49.8467 129.254 50.18 127.934 50.18C126.894 50.18 125.968 49.9467 125.154 49.48C124.354 49.0133 123.728 48.3533 123.274 47.5C122.821 46.6467 122.594 45.6467 122.594 44.5ZM145.423 44.1C145.423 44.4467 145.403 44.8133 145.363 45.2H136.603C136.669 46.28 137.036 47.1267 137.703 47.74C138.383 48.34 139.203 48.64 140.163 48.64C140.949 48.64 141.603 48.46 142.123 48.1C142.656 47.7267 143.029 47.2333 143.243 46.62H145.203C144.909 47.6733 144.323 48.5333 143.443 49.2C142.563 49.8533 141.469 50.18 140.163 50.18C139.123 50.18 138.189 49.9467 137.363 49.48C136.549 49.0133 135.909 48.3533 135.443 47.5C134.976 46.6333 134.743 45.6333 134.743 44.5C134.743 43.3667 134.969 42.3733 135.423 41.52C135.876 40.6667 136.509 40.0133 137.323 39.56C138.149 39.0933 139.096 38.86 140.163 38.86C141.203 38.86 142.123 39.0867 142.923 39.54C143.723 39.9933 144.336 40.62 144.763 41.42C145.203 42.2067 145.423 43.1 145.423 44.1ZM143.543 43.72C143.543 43.0267 143.389 42.4333 143.083 41.94C142.776 41.4333 142.356 41.0533 141.823 40.8C141.303 40.5333 140.723 40.4 140.083 40.4C139.163 40.4 138.376 40.6933 137.723 41.28C137.083 41.8667 136.716 42.68 136.623 43.72H143.543ZM151.705 50.18C150.865 50.18 150.112 50.04 149.445 49.76C148.778 49.4667 148.252 49.0667 147.865 48.56C147.478 48.04 147.265 47.4467 147.225 46.78H149.105C149.158 47.3267 149.412 47.7733 149.865 48.12C150.332 48.4667 150.938 48.64 151.685 48.64C152.378 48.64 152.925 48.4867 153.325 48.18C153.725 47.8733 153.925 47.4867 153.925 47.02C153.925 46.54 153.712 46.1867 153.285 45.96C152.858 45.72 152.198 45.4867 151.305 45.26C150.492 45.0467 149.825 44.8333 149.305 44.62C148.798 44.3933 148.358 44.0667 147.985 43.64C147.625 43.2 147.445 42.6267 147.445 41.92C147.445 41.36 147.612 40.8467 147.945 40.38C148.278 39.9133 148.752 39.5467 149.365 39.28C149.978 39 150.678 38.86 151.465 38.86C152.678 38.86 153.658 39.1667 154.405 39.78C155.152 40.3933 155.552 41.2333 155.605 42.3H153.785C153.745 41.7267 153.512 41.2667 153.085 40.92C152.672 40.5733 152.112 40.4 151.405 40.4C150.752 40.4 150.232 40.54 149.845 40.82C149.458 41.1 149.265 41.4667 149.265 41.92C149.265 42.28 149.378 42.58 149.605 42.82C149.845 43.0467 150.138 43.2333 150.485 43.38C150.845 43.5133 151.338 43.6667 151.965 43.84C152.752 44.0533 153.392 44.2667 153.885 44.48C154.378 44.68 154.798 44.9867 155.145 45.4C155.505 45.8133 155.692 46.3533 155.705 47.02C155.705 47.62 155.538 48.16 155.205 48.64C154.872 49.12 154.398 49.5 153.785 49.78C153.185 50.0467 152.492 50.18 151.705 50.18ZM170.586 42.82C171.093 42.9 171.553 43.1067 171.966 43.44C172.393 43.7733 172.726 44.1867 172.966 44.68C173.22 45.1733 173.346 45.7 173.346 46.26C173.346 46.9667 173.166 47.6067 172.806 48.18C172.446 48.74 171.92 49.1867 171.226 49.52C170.546 49.84 169.74 50 168.806 50H163.606V36.06H168.606C169.553 36.06 170.36 36.22 171.026 36.54C171.693 36.8467 172.193 37.2667 172.526 37.8C172.86 38.3333 173.026 38.9333 173.026 39.6C173.026 40.4267 172.8 41.1133 172.346 41.66C171.906 42.1933 171.32 42.58 170.586 42.82ZM165.426 42.08H168.486C169.34 42.08 170 41.88 170.466 41.48C170.933 41.08 171.166 40.5267 171.166 39.82C171.166 39.1133 170.933 38.56 170.466 38.16C170 37.76 169.326 37.56 168.446 37.56H165.426V42.08ZM168.646 48.5C169.553 48.5 170.26 48.2867 170.766 47.86C171.273 47.4333 171.526 46.84 171.526 46.08C171.526 45.3067 171.26 44.7 170.726 44.26C170.193 43.8067 169.48 43.58 168.586 43.58H165.426V48.5H168.646ZM185.312 39.04L178.712 55.16H176.832L178.992 49.88L174.572 39.04H176.592L180.032 47.92L183.432 39.04H185.312Z" fill="#5025A4"/>
<path d="M198.2 55.28C197.827 55.28 197.64 55.04 197.64 54.56C197.64 54.3467 197.667 54.16 197.72 54C197.827 53.84 197.907 53.68 197.96 53.52C198.76 51.92 199.853 49.8933 201.24 47.44C202.627 44.9867 204.147 42.2933 205.8 39.36C207.453 36.4267 209.107 33.44 210.76 30.4C212.413 27.3067 213.933 24.32 215.32 21.44C216.707 18.5067 217.827 15.84 218.68 13.44C219.533 11.04 219.96 9.06666 219.96 7.52C219.96 6.18666 219.533 5.2 218.68 4.56C217.88 3.86666 216.893 3.41333 215.72 3.2C214.6 2.93333 213.533 2.8 212.52 2.8C210.333 2.8 207.96 3.12 205.4 3.76C202.84 4.34666 200.36 5.14666 197.96 6.16C195.56 7.17333 193.453 8.29333 191.64 9.52C190.733 10.1067 189.747 10.8533 188.68 11.76C187.613 12.6667 186.707 13.68 185.96 14.8C185.267 15.8667 184.92 17.0133 184.92 18.24C184.92 19.6267 185.347 20.7733 186.2 21.68C187.107 22.5867 188.2 23.3333 189.48 23.92C190.76 24.5067 191.933 24.9867 193 25.36C193.107 25.4133 193.347 25.52 193.72 25.68C194.093 25.84 194.28 26.0267 194.28 26.24C194.28 26.3467 194.173 26.4267 193.96 26.48C193.8 26.48 193.693 26.48 193.64 26.48C193.48 26.48 193.32 26.48 193.16 26.48C193 26.4267 192.84 26.4 192.68 26.4C191.667 26.24 190.52 26 189.24 25.68C187.96 25.3067 186.733 24.8533 185.56 24.32C184.387 23.7333 183.4 22.9867 182.6 22.08C181.853 21.1733 181.48 20.08 181.48 18.8C181.48 17.2533 181.987 15.7867 183 14.4C184.013 13.0133 185.213 11.76 186.6 10.64C187.987 9.46667 189.24 8.50667 190.36 7.76C192.387 6.48 194.68 5.33333 197.24 4.32C199.8 3.25333 202.413 2.42666 205.08 1.84C207.8 1.2 210.36 0.879998 212.76 0.879998C214.2 0.879998 215.72 1.09333 217.32 1.52C218.973 1.89333 220.387 2.58666 221.56 3.6C222.733 4.56 223.32 5.94666 223.32 7.76C223.32 8.98667 222.947 10.64 222.2 12.72C221.507 14.7467 220.573 17.0133 219.4 19.52C218.28 22.0267 217 24.6133 215.56 27.28C214.173 29.9467 212.76 32.5333 211.32 35.04C209.933 37.4933 208.653 39.7333 207.48 41.76C206.307 43.7333 205.347 45.3067 204.6 46.48C203.747 47.76 202.92 49.0667 202.12 50.4C201.32 51.7867 200.467 53.0933 199.56 54.32C199.4 54.5333 199.187 54.7467 198.92 54.96C198.707 55.1733 198.467 55.28 198.2 55.28ZM240.52 51.36C238.227 51.36 236.413 50.7467 235.08 49.52C233.747 48.2933 232.787 46.7467 232.2 44.88C231.667 43.0133 231.4 41.0933 231.4 39.12C231.4 36.08 231.853 33.04 232.76 30C233.667 26.9067 234.893 23.9467 236.44 21.12C238.04 18.2933 239.827 15.7867 241.8 13.6C240.733 13.92 239.347 14.6933 237.64 15.92C235.987 17.1467 234.147 18.64 232.12 20.4C230.147 22.16 228.12 24.0533 226.04 26.08C223.96 28.1067 221.96 30.1067 220.04 32.08C218.12 34.0533 216.387 35.8667 214.84 37.52C213.293 39.12 212.093 40.4 211.24 41.36C210.44 42.2667 209.453 43.3333 208.28 44.56C207.16 45.7867 206.307 46.9333 205.72 48C205.72 48.0533 205.587 48.3467 205.32 48.88C205.053 49.4133 204.813 49.68 204.6 49.68C204.547 49.68 204.52 49.5733 204.52 49.36C204.52 48.9333 204.6 48.4267 204.76 47.84C204.973 47.2533 205.133 46.7733 205.24 46.4C205.4 45.92 205.987 45.0667 207 43.84C208.013 42.6133 209.267 41.1467 210.76 39.44C212.307 37.7333 213.933 35.9467 215.64 34.08C217.4 32.2133 219.107 30.4267 220.76 28.72C222.413 27.0133 223.853 25.52 225.08 24.24C226.36 22.96 227.293 22.0533 227.88 21.52C228.733 20.72 229.853 19.8133 231.24 18.8C232.68 17.7333 234.2 16.6667 235.8 15.6C237.453 14.5333 239.027 13.5733 240.52 12.72C242.067 11.8667 243.373 11.2533 244.44 10.88C244.707 10.72 245.027 10.64 245.4 10.64C245.667 10.64 246.013 10.6933 246.44 10.8C246.92 10.9067 247.213 11.12 247.32 11.44C247.267 11.44 247.24 11.4933 247.24 11.6C246.76 12.1867 246.28 12.7733 245.8 13.36C245.373 13.9467 244.947 14.56 244.52 15.2C243.133 17.3867 241.8 19.9467 240.52 22.88C239.24 25.8133 238.2 28.8267 237.4 31.92C236.6 35.0133 236.2 37.8667 236.2 40.48C236.2 41.6 236.307 42.88 236.52 44.32C236.787 45.76 237.267 47.04 237.96 48.16C238.707 49.2267 239.827 49.76 241.32 49.76C242.92 49.76 244.627 49.1733 246.44 48C248.307 46.7733 250.12 45.28 251.88 43.52C253.693 41.7067 255.32 39.8933 256.76 38.08C258.2 36.2667 259.347 34.7733 260.2 33.6C262.333 30.5067 264.173 27.36 265.72 24.16C266.467 22.56 267.187 20.7733 267.88 18.8C268.573 16.7733 268.92 14.8533 268.92 13.04C268.92 8.93333 266.84 6.88 262.68 6.88C262.2 6.88 261.96 6.66666 261.96 6.24C261.96 5.76 262.2 5.52 262.68 5.52C265.187 5.52 267.133 6.4 268.52 8.16C269.96 9.92 270.68 12.0267 270.68 14.48V14.96C270.68 17.1467 270.413 19.28 269.88 21.36C269.347 23.3867 268.653 25.4133 267.8 27.44C267.107 29.0933 266.28 30.72 265.32 32.32C264.413 33.8667 263.427 35.3867 262.36 36.88C261.24 38.4267 259.853 40.0533 258.2 41.76C256.547 43.4133 254.733 44.9867 252.76 46.48C250.84 47.92 248.84 49.0933 246.76 50C244.68 50.9067 242.6 51.36 240.52 51.36ZM268.586 50.56C267.413 50.56 266.64 50.3733 266.266 50C265.893 49.6267 265.706 48.8533 265.706 47.68C265.706 46.4 266 44.9333 266.586 43.28C267.226 41.6267 267.813 40.24 268.346 39.12C268.346 39.0667 268.32 39.04 268.266 39.04C268.266 38.9867 268.266 38.9333 268.266 38.88C268.266 38.6133 268.346 38.4 268.506 38.24C268.72 38.08 268.88 37.92 268.986 37.76C269.253 37.3333 269.493 36.9067 269.706 36.48C269.92 36.0533 270.133 35.6533 270.346 35.28C271.253 33.84 272.346 32.4533 273.626 31.12C274.96 29.7867 276.453 28.88 278.106 28.4C278.693 28.24 279.253 28.16 279.786 28.16C279.893 28.16 280 28.1867 280.106 28.24C280.266 28.24 280.346 28.2933 280.346 28.4C280.346 28.56 280.186 28.7467 279.866 28.96C279.6 29.1733 279.413 29.3333 279.306 29.44C278.453 30.1333 277.52 31.2 276.506 32.64C275.546 34.08 274.773 35.2533 274.186 36.16C275.413 35.9467 276.613 35.7867 277.786 35.68C279.013 35.5733 280.213 35.5733 281.386 35.68C281.973 34.8267 282.506 33.7867 282.986 32.56C283.52 31.28 283.786 30.1067 283.786 29.04C283.786 28.4533 283.706 28.1067 283.546 28C283.44 27.8933 283.146 27.84 282.666 27.84C282.56 27.84 282.4 27.8133 282.186 27.76C281.973 27.7067 281.866 27.6 281.866 27.44C281.866 27.2267 282.106 27.04 282.586 26.88C283.066 26.72 283.573 26.6133 284.106 26.56C284.64 26.4533 284.986 26.4 285.146 26.4C286.586 26.4 287.306 27.0667 287.306 28.4C287.306 29.1467 287.066 30.0533 286.586 31.12C286.16 32.1333 285.6 33.0933 284.906 34C284.266 34.8533 283.626 35.4667 282.986 35.84C283.146 35.84 283.466 35.92 283.946 36.08C284.48 36.1867 284.96 36.32 285.386 36.48C285.866 36.64 286.106 36.8267 286.106 37.04C286.106 37.2 285.946 37.3067 285.626 37.36C285.306 37.36 285.093 37.36 284.986 37.36C284.506 37.36 284.026 37.3333 283.546 37.28C283.066 37.1733 282.586 37.12 282.106 37.12C280.613 37.12 279.093 37.2267 277.546 37.44C276.053 37.6533 274.56 37.92 273.066 38.24C272.533 39.2 271.92 40.4267 271.226 41.92C270.586 43.4133 270.266 44.7467 270.266 45.92C270.266 47.7867 271.226 48.72 273.146 48.72C274.533 48.72 275.866 48.3467 277.146 47.6C278.48 46.8533 279.706 45.9733 280.826 44.96C281.946 43.9467 282.853 43.0667 283.546 42.32C284.24 41.5733 284.64 41.2 284.746 41.2C284.906 41.2 284.986 41.3067 284.986 41.52C284.986 42.16 284.613 42.9333 283.866 43.84C283.12 44.6933 282.506 45.3067 282.026 45.68C280.16 47.12 278.053 48.2933 275.706 49.2C273.413 50.1067 271.04 50.56 268.586 50.56ZM285.798 51.2C285.424 51.2 285.264 51.0667 285.318 50.8C286.811 48.24 288.171 45.6267 289.398 42.96C290.678 40.2933 291.878 37.6 292.998 34.88C292.998 34.7733 293.104 34.48 293.318 34C293.531 33.4667 293.638 33.1733 293.638 33.12C293.638 32.96 293.504 32.9067 293.238 32.96C292.971 33.0133 292.838 32.9333 292.838 32.72C292.838 32.6133 293.051 32.2133 293.478 31.52C293.904 30.7733 294.358 30.0267 294.838 29.28C295.318 28.48 295.611 28 295.718 27.84C295.984 27.52 296.491 27.2 297.238 26.88C297.984 26.56 298.544 26.4 298.918 26.4C299.451 26.4 299.718 26.64 299.718 27.12C299.718 27.28 299.531 27.8133 299.158 28.72C298.784 29.6267 298.304 30.6933 297.718 31.92C297.131 33.1467 296.544 34.4 295.958 35.68C295.371 36.96 294.838 38.08 294.358 39.04C293.878 40 293.558 40.64 293.398 40.96C293.824 40.4267 294.518 39.6533 295.478 38.64C296.491 37.5733 297.611 36.4267 298.838 35.2C300.118 33.9733 301.398 32.8 302.678 31.68C303.958 30.5067 305.104 29.5733 306.118 28.88C307.184 28.1333 308.011 27.76 308.598 27.76C309.024 27.76 309.264 27.92 309.318 28.24C309.424 28.56 309.478 28.8533 309.478 29.12C309.478 29.8133 309.398 30.5333 309.238 31.28C309.078 32.0267 308.891 32.7467 308.678 33.44C308.251 35.04 307.718 36.9333 307.078 39.12C306.491 41.2533 306.198 43.12 306.198 44.72C306.198 45.52 306.331 46.2667 306.598 46.96C306.918 47.6 307.558 47.92 308.518 47.92C309.264 47.92 310.038 47.68 310.838 47.2C311.691 46.72 312.464 46.16 313.158 45.52C313.904 44.8267 314.544 44.24 315.078 43.76C315.664 43.28 316.038 43.04 316.198 43.04C316.251 43.04 316.278 43.0933 316.278 43.2C316.278 43.36 316.224 43.5733 316.118 43.84C316.064 44.0533 315.984 44.2133 315.878 44.32C315.024 45.6533 313.771 46.9333 312.118 48.16C310.518 49.3867 308.918 50 307.318 50C305.664 50 304.411 49.52 303.558 48.56C302.758 47.5467 302.358 46.24 302.358 44.64C302.358 43.2533 302.598 41.7067 303.078 40C303.611 38.2933 304.064 36.7467 304.438 35.36C304.544 34.9333 304.678 34.4267 304.838 33.84C305.051 33.2533 305.158 32.7467 305.158 32.32C305.158 32.2133 305.131 32.08 305.078 31.92C305.024 31.76 304.918 31.68 304.758 31.68C304.491 31.68 304.144 31.84 303.718 32.16C303.344 32.4267 303.051 32.64 302.838 32.8C301.824 33.6533 300.678 34.7467 299.398 36.08C298.171 37.4133 296.944 38.88 295.718 40.48C294.491 42.0267 293.371 43.5467 292.358 45.04C291.344 46.5333 290.544 47.8667 289.958 49.04C289.851 49.3067 289.504 49.6267 288.918 50C288.384 50.32 287.798 50.5867 287.158 50.8C286.571 51.0667 286.118 51.2 285.798 51.2ZM332.153 50.64C330.713 50.64 329.753 50.08 329.273 48.96C328.846 47.7867 328.633 46.6133 328.633 45.44C328.633 44.6933 328.713 43.7333 328.873 42.56C329.086 41.3867 329.326 40.24 329.593 39.12C329.913 38 330.233 37.12 330.553 36.48C329.54 38.24 328.34 39.9467 326.953 41.6C326.42 42.24 325.646 43.0667 324.633 44.08C323.673 45.04 322.606 46.0267 321.433 47.04C320.26 48.0533 319.113 48.9067 317.993 49.6C316.873 50.24 315.86 50.56 314.953 50.56C314.313 50.56 313.886 50.3467 313.673 49.92C313.513 49.4933 313.433 49.0133 313.433 48.48C313.433 47.36 313.7 45.9467 314.233 44.24C314.766 42.5333 315.486 40.7467 316.393 38.88C317.353 36.96 318.42 35.2 319.593 33.6C320.82 32 322.073 30.72 323.353 29.76C324.686 28.7467 326.02 28.2933 327.353 28.4C328.1 28.0267 328.74 27.7333 329.273 27.52C329.806 27.2533 330.473 27.12 331.273 27.12C331.86 27.12 332.446 27.1733 333.033 27.28C333.62 27.3333 334.18 27.4133 334.713 27.52C336.366 24.3733 338.02 21.2267 339.673 18.08C341.326 14.88 343.14 11.8133 345.113 8.88C344.953 8.56 344.873 8.18666 344.873 7.76C344.873 7.49333 344.926 7.28 345.033 7.12C345.193 6.85333 345.486 6.4 345.913 5.76C346.34 5.06666 346.766 4.4 347.193 3.76C347.62 3.12 347.886 2.72 347.993 2.56C348.26 2.24 348.766 2 349.513 1.84C350.313 1.68 350.926 1.6 351.353 1.6C351.62 1.6 352.02 1.65333 352.553 1.76C353.14 1.81333 353.433 2.02666 353.433 2.4C353.433 2.56 353.406 2.64 353.353 2.64C352.553 3.81333 351.7 4.98666 350.793 6.16C349.94 7.33333 349.113 8.53333 348.313 9.76C346.233 12.8 344.233 15.8933 342.313 19.04C340.393 22.1333 338.606 25.3333 336.953 28.64C336.953 29.4933 336.74 30.2133 336.313 30.8C335.886 31.3867 335.46 32.0267 335.033 32.72C334.926 32.9333 334.82 33.1733 334.713 33.44C334.66 33.7067 334.58 33.9733 334.473 34.24C333.94 35.7333 333.433 37.3867 332.953 39.2C332.473 40.96 332.233 42.6667 332.233 44.32C332.233 45.0133 332.313 45.84 332.473 46.8C332.686 47.76 333.246 48.24 334.153 48.24C335.06 48.24 335.966 47.8933 336.873 47.2C337.833 46.4533 338.66 45.7333 339.353 45.04C340.046 44.2933 340.446 43.92 340.553 43.92C340.606 43.92 340.633 43.9733 340.633 44.08C340.633 44.56 340.366 45.12 339.833 45.76C339.3 46.4 338.713 47.0133 338.073 47.6C337.486 48.1333 337.033 48.5333 336.713 48.8C336.073 49.28 335.353 49.7067 334.553 50.08C333.753 50.4533 332.953 50.64 332.153 50.64ZM317.753 47.84C318.02 47.84 318.313 47.7333 318.633 47.52C319.006 47.2533 319.3 47.04 319.513 46.88C322.393 44.8 324.9 42.2133 327.033 39.12C329.22 35.9733 331.033 32.8 332.473 29.6C331.94 29.28 331.3 29.12 330.553 29.12C329.593 29.12 328.633 29.3867 327.673 29.92C326.766 30.4 325.993 31.0133 325.353 31.76C324.34 32.8267 323.3 34.24 322.233 36C321.22 37.7067 320.286 39.4667 319.433 41.28C318.633 43.0933 317.993 44.7467 317.513 46.24C317.46 46.4 317.406 46.56 317.353 46.72C317.353 46.88 317.353 47.0667 317.353 47.28C317.353 47.6533 317.486 47.84 317.753 47.84ZM328.26 76.72C326.82 76.72 325.327 76.4533 323.78 75.92C322.233 75.44 320.927 74.64 319.86 73.52C318.793 72.4533 318.26 71.0667 318.26 69.36C318.26 67.8133 318.713 66.4 319.62 65.12C320.473 63.84 321.593 62.6667 322.98 61.6C324.313 60.5867 325.727 59.68 327.22 58.88C328.713 58.08 330.047 57.44 331.22 56.96C334.207 55.7333 337.46 54.8 340.98 54.16C344.553 53.52 347.94 53.0933 351.14 52.88C352.1 50.4267 353.06 47.9733 354.02 45.52C355.033 43.0667 355.807 40.5333 356.34 37.92L356.66 36.4C355.967 37.3067 355.007 38.5333 353.78 40.08C352.607 41.6267 351.3 43.2 349.86 44.8C348.473 46.4 347.06 47.76 345.62 48.88C344.18 49.9467 342.9 50.48 341.78 50.48C340.873 50.48 340.26 50.1067 339.94 49.36C339.62 48.56 339.46 47.7867 339.46 47.04C339.46 45.0133 339.913 43.0933 340.82 41.28C341.727 39.4133 342.633 37.6267 343.54 35.92L343.3 36C342.98 36 342.82 35.84 342.82 35.52C342.82 35.4667 342.873 35.3333 342.98 35.12C343.673 33.84 344.26 32.7467 344.74 31.84C345.22 30.9333 345.86 30.24 346.66 29.76C347.46 29.28 348.687 29.04 350.34 29.04C350.66 29.04 350.82 29.1733 350.82 29.44C350.82 29.8667 350.527 30.5867 349.94 31.6C349.353 32.6133 348.713 33.6533 348.02 34.72C347.327 35.7333 346.847 36.4533 346.58 36.88C346.153 37.52 345.647 38.4533 345.06 39.68C344.473 40.9067 343.967 42.1333 343.54 43.36C343.113 44.5333 342.9 45.4933 342.9 46.24C342.9 46.5067 342.953 46.7733 343.06 47.04C343.167 47.2533 343.38 47.36 343.7 47.36C344.393 47.36 345.273 46.96 346.34 46.16C347.407 45.3067 348.527 44.24 349.7 42.96C350.873 41.68 352.02 40.3467 353.14 38.96C354.26 37.52 355.22 36.2133 356.02 35.04C356.873 33.8133 357.487 32.8533 357.86 32.16C358.287 31.4133 358.58 30.64 358.74 29.84C358.9 28.9867 359.407 28.2933 360.26 27.76C360.633 27.5467 361.113 27.3333 361.7 27.12C362.287 26.8533 362.767 26.72 363.14 26.72C363.673 26.72 363.94 26.9867 363.94 27.52C363.94 28.2667 363.673 29.04 363.14 29.84C362.66 30.5867 362.233 31.28 361.86 31.92C361.38 32.8267 360.927 33.92 360.5 35.2C360.127 36.4267 359.78 37.5733 359.46 38.64C358.607 40.9867 357.78 43.36 356.98 45.76C356.233 48.1067 355.327 50.4533 354.26 52.8H355.86C356.287 52.8 356.687 52.8267 357.06 52.88C357.487 52.9333 357.7 53.0933 357.7 53.36C357.7 53.6267 357.407 53.7867 356.82 53.84C356.287 53.8933 355.7 53.8933 355.06 53.84C354.473 53.84 354.073 53.84 353.86 53.84C352.793 56.4 351.433 59.0133 349.78 61.68C348.18 64.4 346.287 66.88 344.1 69.12C341.967 71.4133 339.593 73.2533 336.98 74.64C334.313 76.0267 331.407 76.72 328.26 76.72ZM327.94 75.04C330.553 75.04 333.033 74.32 335.38 72.88C337.673 71.4933 339.78 69.7067 341.7 67.52C343.673 65.3333 345.407 63.0133 346.9 60.56C348.447 58.16 349.7 55.9467 350.66 53.92C347.673 54.1333 344.473 54.5867 341.06 55.28C337.647 56.0267 334.607 57.0933 331.94 58.48C330.607 59.12 329.14 60 327.54 61.12C325.887 62.24 324.473 63.52 323.3 64.96C322.073 66.4533 321.46 68.0533 321.46 69.76C321.46 71.5733 322.153 72.9067 323.54 73.76C324.873 74.6133 326.34 75.04 327.94 75.04Z" fill="#5025A4"/>
<path d="M40.1484 20.6638C40.298 20.2205 40.4758 19.7873 40.6808 19.3667C38.0436 17.603 34.8762 16.5733 31.4724 16.5733C22.9306 16.5733 15.8754 23.0552 14.9649 31.3584C16.2028 31.4344 17.4093 31.7021 18.545 32.1511C19.0717 25.4799 24.6685 20.2128 31.4724 20.2128C33.5496 20.2128 35.5139 20.7044 37.2561 21.5762C38.1617 21.1109 39.1397 20.8024 40.1484 20.6638Z" fill="url(#paint0_linear_1_135)"/>
<path d="M8.44212 32.8653C9.60587 32.2033 10.8749 31.7466 12.1936 31.5153C13.3115 21.8678 21.5303 14.3536 31.4723 14.3536C35.3102 14.3536 38.8913 15.4738 41.9065 17.4034C42.6805 16.4121 43.6177 15.5598 44.6778 14.8832C40.9353 12.2577 36.3809 10.7141 31.4723 10.7141C19.0636 10.714 8.91564 20.5706 8.44212 32.8653Z" fill="url(#paint1_linear_1_135)"/>
<path d="M3.07038 39.4649C3.6148 37.7762 4.5405 36.2266 5.79036 34.93C5.78559 34.7307 5.78123 34.5312 5.78123 34.3311C5.78123 20.1648 17.3062 8.63965 31.4724 8.63965C37.2546 8.63965 42.5965 10.5605 46.8947 13.7967C48.089 13.3692 49.348 13.1507 50.6166 13.1508C51.0178 13.1508 51.4159 13.1748 51.8103 13.2172C46.5332 8.13215 39.3621 5 31.4723 5C15.2993 5 2.14145 18.1578 2.14145 34.3311C2.1418 36.0754 2.29825 37.8161 2.60893 39.5324C2.76218 39.5062 2.91604 39.4837 3.07038 39.4649ZM22.3493 41.0031C21.9043 39.623 21.1139 38.3794 20.0533 37.3905C18.4717 35.914 16.4087 35.0973 14.244 35.0973C12.0791 35.0973 10.0158 35.9107 8.43411 37.3875C7.36282 38.3877 6.57919 39.6293 6.13866 40.9957C2.6853 41.4111 0 44.3981 0 47.9692C0.000140386 51.8273 3.11348 55 6.94012 55H21.509C25.3569 55 28.4875 51.829 28.4875 47.9727C28.4875 44.4014 25.8025 41.4202 22.3493 41.0031ZM20.6297 52.3327H7.78595C5.43252 52.3327 3.52972 50.3462 3.52972 47.989C3.52972 45.6211 5.44908 43.6702 7.81669 43.6702C8.08272 43.6702 8.34258 43.6863 8.59513 43.7326C8.80992 40.8099 11.2472 38.4948 14.225 38.4948C17.2023 38.4948 19.6396 40.8 19.8548 43.7222C20.1105 43.6753 20.3699 43.6514 20.6299 43.6511C22.9993 43.6511 24.9202 45.6224 24.9202 47.9919C24.92 50.3614 22.9991 52.3327 20.6297 52.3327ZM59.3286 22.6589C58.8835 21.2789 58.0932 20.0354 57.0326 19.0466C55.451 17.5699 53.3879 16.7533 51.2232 16.7533C49.0583 16.7533 46.995 17.5666 45.4135 19.0434C44.3422 20.0438 43.5587 21.2853 43.118 22.6516C39.6646 23.0668 36.9793 26.0309 36.9793 29.6017C36.9793 33.46 40.0927 36.6094 43.9193 36.6094H58.4882C62.3363 36.6094 65.4669 33.462 65.4669 29.6054C65.4669 26.0343 62.7817 23.0761 59.3286 22.6589ZM57.6089 33.9421H44.7652C42.4116 33.9421 40.5089 31.9788 40.5089 29.6213C40.5089 27.2537 42.4283 25.3144 44.7959 25.3144C45.0619 25.3144 45.3218 25.3363 45.5743 25.3826C45.7891 22.4601 48.2265 20.1481 51.2041 20.1481C54.1815 20.1481 56.6188 22.4546 56.8339 25.3767C57.0896 25.3301 57.349 25.3065 57.6089 25.3064C59.9784 25.3064 61.8994 27.2548 61.8994 29.6243C61.8994 31.9937 59.9784 33.9421 57.6089 33.9421Z" fill="url(#paint2_linear_1_135)"/>
<defs>
<linearGradient id="paint0_linear_1_135" x1="27.8228" y1="16.5733" x2="27.8228" y2="32.1511" gradientUnits="userSpaceOnUse">
<stop stop-color="#5CE0E6"/>
<stop offset="1" stop-color="#8C52FF"/>
</linearGradient>
<linearGradient id="paint1_linear_1_135" x1="26.56" y1="10.7141" x2="26.56" y2="32.8653" gradientUnits="userSpaceOnUse">
<stop stop-color="#5CE0E6"/>
<stop offset="1" stop-color="#8C52FF"/>
</linearGradient>
<linearGradient id="paint2_linear_1_135" x1="32.7334" y1="5" x2="32.7334" y2="55" gradientUnits="userSpaceOnUse">
<stop stop-color="#5CE0E6"/>
<stop offset="1" stop-color="#8C52FF"/>
</linearGradient>
</defs>
</svg>
